Coordinates
version=1
nRows=15
nColumns=42
inDegrees=yes

Units are S.I. units (second, meters, Newtons, ...)
If the header above contains a line with 'inDegrees', this indicates whether rotational values are in degrees (yes) or radians (no).

endheader
time	pelvis_tilt	pelvis_list	pelvis_rotation	pelvis_tx	pelvis_ty	pelvis_tz	hip_flexion_r	hip_adduction_r	hip_rotation_r	knee_angle_r	knee_adduction_r	knee_angle_r_beta	ankle_angle_r	subtalar_angle_r	mtp_angle_r	hip_flexion_l	hip_adduction_l	hip_rotation_l	knee_angle_l	knee_adduction_l	knee_angle_l_beta	ankle_angle_l	subtalar_angle_l	mtp_angle_l	lumbar_extension	lumbar_bending	lumbar_rotation	arm_flex_r	arm_add_r	arm_rot_r	elbow_flex_r	pro_sup_r	wrist_flex_r	wrist_dev_r	arm_flex_l	arm_add_l	arm_rot_l	elbow_flex_l	pro_sup_l	wrist_flex_l	wrist_dev_l
      2.24000000	      7.82087052	      4.95429208	     -0.46838261	     -0.36423234	      0.99765735	      0.28376540	     11.24096133	    -14.96566474	    -15.98931142	     72.59708786	     -4.60256320	      1.26705821	     -9.16578891	    -15.02602183	     -7.51043189	      2.87934503	      8.03728268	    -22.40541635	      8.69811422	     -5.67145197	      0.15181073	      1.56603217	     29.60797099	     -7.51043189	    -26.87384039	     -9.44508356	     -0.63366167	     14.24343505	    -17.70991124	     26.79034401	     38.65412406	     90.00000001	      0.00000000	      0.00000000	      7.23582083	    -18.44127339	     13.54065077	     37.37793816	     90.00000001	      0.00000000	      0.00000000
      2.25000000	      7.78955753	      5.01251621	     -0.24789043	     -0.35796687	      0.99809947	      0.28287846	     12.64999564	    -14.94798542	    -15.74044192	     72.82145646	     -4.48593523	      1.27097418	     -7.94645564	    -14.80993368	     -7.51025385	      2.46486986	      8.16055476	    -22.17949677	      8.66398578	     -5.67065922	      0.15121508	      1.95357349	     29.79598579	     -7.51025385	    -26.98784303	     -9.43476807	     -0.94877151	     13.53965018	    -17.55452672	     26.84584627	     38.55899225	     90.00000001	      0.00000000	      0.00000000	      8.44067584	    -18.82464121	     13.58475890	     37.49658341	     90.00000001	      0.00000000	      0.00000000
      2.26000000	      7.85515353	      4.98666199	      0.01515061	     -0.35172138	      0.99872539	      0.28203023	     13.83671539	    -14.78589770	    -15.59716160	     72.65416791	     -4.37675197	      1.26805445	     -7.57501230	    -14.40199423	     -7.51016128	      2.00817973	      8.11800957	    -22.12207331	      8.78902144	     -5.61238699	      0.15339736	      2.08804774	     29.60015751	     -7.51016128	    -27.21836756	     -9.30826668	     -1.41950809	     12.93166947	    -17.35232384	     26.91291037	     38.52480524	     90.00000001	      0.00000000	      0.00000000	      9.48154821	    -19.25635492	     13.45538523	     37.79714454	     90.00000001	      0.00000000	      0.00000000
      2.27000000	      7.80512605	      5.13160370	      0.18380582	     -0.34536126	      0.99900993	      0.28122638	     15.13588707	    -14.82051579	    -14.98597245	     72.42110659	     -3.88308142	      1.26398676	     -5.35157501	    -13.38579885	     -7.50973969	      1.60016355	      8.35093687	    -21.89786253	      8.71995647	     -5.64733611	      0.15219195	      2.76777858	     30.30672935	     -7.50973969	    -27.24568657	     -9.40112469	     -1.50303168	     12.02397582	    -17.29686635	     26.90933718	     38.51966883	     90.00000001	      0.00000000	      0.00000000	     11.01164187	    -19.52672609	     13.95696198	     37.30622483	     90.00000001	      0.00000000	      0.00000000
      2.28000000	      7.81661881	      5.16388410	      0.43711271	     -0.33908470	      0.99947392	      0.28046549	     16.26809894	    -14.69463950	    -14.90886669	     71.77812825	     -3.77634568	      1.25276467	     -5.00923695	    -13.06045643	     -7.50964949	      1.20429911	      8.37265862	    -21.81993727	      8.82857491	     -5.60907408	      0.15408770	      2.90636016	     30.10951019	     -7.50964949	    -27.39475195	     -9.33597794	     -1.93479586	     11.37691841	    -17.08518054	     26.98855409	     38.48852358	     90.00000001	      0.00000000	      0.00000000	     12.04634900	    -19.95162903	     13.80888056	     37.66049589	     90.00000001	      0.00000000	      0.00000000
      2.29000000	      7.81663990	      5.22710049	      0.68324847	     -0.33267669	      0.99977239	      0.27972868	     17.33861427	    -14.57148912	    -14.81233557	     70.97395107	     -3.63654200	      1.23872913	     -3.64488997	    -12.68250844	     -7.50947868	      0.68759564	      8.53037639	    -21.24841481	      8.69298407	     -5.62909579	      0.15172119	      3.50456342	     30.48555434	     -7.50947868	    -27.48309570	     -9.31290883	     -2.12200628	     10.51993178	    -17.01564003	     27.07631159	     38.44779791	     90.00000001	      0.00000000	      0.00000000	     13.21557378	    -20.19474916	     13.78461007	     37.91110453	     90.00000001	      0.00000000	      0.00000000
      2.30000000	      7.88938570	      5.29178413	      0.91703774	     -0.32618633	      1.00013885	      0.27902923	     18.21497350	    -14.44371178	    -14.68816079	     69.86677556	     -3.42880397	      1.21940527	     -2.69165270	    -11.82236911	     -7.50926153	      0.14839534	      8.62846949	    -20.96608118	      8.68424139	     -5.62672947	      0.15156861	      3.95656532	     30.63745331	     -7.50926153	    -27.62961383	     -9.27603167	     -2.46189149	      9.72204039	    -16.89516468	     27.15837210	     38.56815129	     90.00000001	      0.00000000	      0.00000000	     14.30750464	    -20.52001732	     13.75973017	     38.08608200	     90.00000001	      0.00000000	      0.00000000
      2.31000000	      7.86380873	      5.38455284	      1.15452865	     -0.31971488	      1.00033804	      0.27840618	     19.14125471	    -14.32625087	    -14.64261668	     68.53518152	     -3.28424742	      1.19616457	     -2.22813681	    -11.37314897	     -7.50914194	     -0.23375747	      8.73997471	    -20.79308329	      8.75839953	     -5.63986724	      0.15286291	      4.18671372	     30.54097612	     -7.50914194	    -27.67811536	     -9.28819172	     -2.78553328	      8.93115081	    -16.72854807	     27.26075607	     38.56804819	     90.00000001	      0.00000000	      0.00000000	     15.29782531	    -20.85819797	     13.62844988	     38.44058109	     90.00000001	      0.00000000	      0.00000000
      2.32000000	      7.79879646	      5.54500545	      1.34656082	     -0.31327558	      1.00035978	      0.27781196	     20.07940782	    -14.27333925	    -14.57580993	     67.04399886	     -3.15189476	      1.17013852	     -1.92809838	    -11.04392036	     -7.50905805	     -0.55995903	      8.89965515	    -20.73107359	      8.85924045	     -5.60979122	      0.15462292	      4.35917943	     30.32402118	     -7.50905805	    -27.67412802	     -9.37690345	     -3.20969758	      8.27029749	    -16.58956525	     27.33222434	     38.56861671	     90.00000001	      0.00000000	      0.00000000	     16.23380341	    -21.24656426	     13.46847542	     38.79793972	     90.00000001	      0.00000000	      0.00000000
      2.33000000	      7.71662868	      5.71494577	      1.54859614	     -0.30678001	      1.00029029	      0.27727370	     20.93453975	    -14.20905867	    -14.52814762	     65.33300350	     -3.02452130	      1.14027602	     -1.57486074	    -10.73052787	     -7.50897551	     -0.88650058	      9.08601767	    -20.60087728	      8.92538007	     -5.60777576	      0.15577727	      4.58371356	     30.16362973	     -7.50897551	    -27.66215058	     -9.47378441	     -3.57171495	      7.50537098	    -16.41938975	     27.42676331	     38.56045874	     90.00000001	      0.00000000	      0.00000000	     17.14920613	    -21.59536012	     13.30954974	     39.17707716	     90.00000001	      0.00000000	      0.00000000
      2.34000000	      8.07025663	      5.66986361	      1.77995037	     -0.29978572	      1.00068562	      0.27678958	     21.04765374	    -13.94997586	    -15.45426068	     63.21866431	     -3.49187730	      1.10337384	      0.10551938	     -8.38249462	     -7.50835121	     -1.93470414	      9.08571805	    -19.95266019	      8.59630907	     -5.61702959	      0.15003390	      5.51849319	     31.12247843	     -7.50835121	    -28.04327758	     -9.27852302	     -3.66129994	      6.39728449	    -16.56764871	     27.73895118	     39.34942611	     90.00000001	      0.00000000	      0.00000000	     18.13686234	    -21.75920736	     13.24114302	     39.67456661	     90.00000001	      0.00000000	      0.00000000
      2.35000000	      7.97330205	      5.82494724	      1.94782944	     -0.29314693	      1.00043533	      0.27636622	     21.73335085	    -13.82644091	    -15.45825176	     61.11603646	     -3.38972337	      1.06667606	      0.38346045	     -8.15239551	     -7.50824727	     -2.26772018	      9.28615735	    -19.77839891	      8.62681859	     -5.68841948	      0.15056639	      5.77502950	     30.98501393	     -7.50824727	    -27.97294001	     -9.37561210	     -3.97628880	      5.60287395	    -16.36014138	     27.85319548	     39.32703794	     90.00000001	      0.00000000	      0.00000000	     18.95900431	    -22.04348785	     13.09139885	     40.09748643	     90.00000001	      0.00000000	      0.00000000
      2.36000000	      8.05250141	      5.88874501	      2.12814530	     -0.28637086	      1.00038378	      0.27605466	     22.05985029	    -13.59915195	    -15.77597134	     58.72277693	     -3.42845900	      1.02490580	      0.79870833	     -7.65881010	     -7.50809114	     -2.92778172	      9.33751598	    -19.32993278	      8.46218317	     -5.60229465	      0.14769296	      6.32185482	     31.14698414	     -7.50809114	    -28.09393211	     -9.34555780	     -4.21235334	      4.81485628	    -16.28945162	     27.94068704	     39.43491108	     90.00000001	      0.00000000	      0.00000000	     19.77674935	    -22.30695351	     12.92627998	     40.66389526	     90.00000001	      0.00000000	      0.00000000
      2.37000000	      8.14818138	      6.06979869	      2.31158761	     -0.27942942	      1.00017284	      0.27571716	     22.34804235	    -13.56367731	    -16.90239906	     56.22322793	     -4.12005898	      0.98128044	      1.59246933	     -5.64238851	     -7.50762241	     -3.57196145	      9.52152312	    -19.12608262	      8.35828568	     -5.60068437	      0.14587960	      6.74108286	     31.37633165	     -7.50762241	    -28.22157905	     -9.43605436	     -4.55556843	      3.90419947	    -16.23892549	     28.06749437	     39.94467494	     90.00000001	      0.00000000	      0.00000000	     20.42059406	    -22.67364972	     12.76830410	     41.50647014	     90.00000001	      0.00000000	      0.00000000
      2.38000000	      8.06842833	      6.20226636	      2.45262235	     -0.27264748	      0.99976411	      0.27547707	     22.72275209	    -13.38159423	    -17.13830077	     53.56793013	     -4.10861669	      0.93493675	      1.89680705	     -5.18375020	     -7.50748647	     -3.99021391	      9.66090471	    -18.85144269	      8.30259665	     -5.59012968	      0.14490765	      7.12861123	     31.33446143	     -7.50748647	    -28.15850846	     -9.49374351	     -4.80161447	      3.12449385	    -16.08308142	     28.15456119	     39.93853418	     90.00000001	      0.00000000	      0.00000000	     21.16206725	    -22.91297307	     12.64246653	     41.96875769	     90.00000001	      0.00000000	      0.00000000
